<?xml version="1.0" standalone="no"?>
<!DOCTYPE svg PUBLIC "-//W3C//DTD SVG 20010904//EN"
 "http://www.w3.org/TR/2001/REC-SVG-20010904/DTD/svg10.dtd">
<svg version="1.0" xmlns="http://www.w3.org/2000/svg"
 width="400.000000pt" height="400.000000pt" viewBox="0 0 400.000000 400.000000"
 preserveAspectRatio="xMidYMid meet">
<metadata>
Created by potrace 1.11, written by Peter Selinger 2001-2013
</metadata>
<g transform="translate(0.000000,400.000000) scale(0.100000,-0.100000)"
fill="#000000" stroke="none">
<path d="M0 2000 l0 -2000 386 0 c349 0 386 2 380 16 -17 44 -16 59 3 71 16
10 22 9 37 -8 9 -10 23 -19 30 -19 7 0 18 -10 25 -21 6 -12 7 -19 1 -15 -5 3
-12 -1 -16 -9 -4 -10 1 -15 14 -15 11 0 20 6 20 14 0 26 21 29 45 6 13 -12 29
-20 37 -18 8 3 -2 19 -29 44 -35 33 -42 46 -46 92 -6 49 -5 52 17 52 12 0 33
-10 46 -22 62 -59 117 -87 104 -53 -11 27 8 16 50 -30 24 -25 48 -45 55 -45 6
0 -13 26 -44 57 -30 31 -58 54 -61 50 -6 -6 -76 30 -137 70 -30 21 -37 32 -37
58 0 20 8 39 23 52 38 34 54 35 77 3 12 -17 28 -30 36 -30 8 0 22 -4 32 -9 69
-38 232 -75 249 -57 4 3 -5 6 -20 6 -42 0 -57 10 -57 40 l0 29 65 -18 c43 -12
79 -31 107 -55 24 -20 74 -62 111 -94 53 -44 67 -62 63 -77 -3 -11 -9 -30 -12
-42 -12 -45 12 -21 38 37 23 51 31 60 53 60 26 0 166 -44 299 -94 46 -17 85
-25 120 -24 47 1 48 2 11 5 -22 2 -64 16 -94 30 -63 29 -226 83 -253 83 -24 0
-23 17 7 136 24 95 30 133 20 122 -3 -2 -16 -51 -31 -108 -27 -112 -47 -162
-37 -95 3 22 17 80 30 130 14 50 37 140 53 200 16 61 31 119 35 130 3 11 -2 7
-11 -10 -10 -16 -23 -55 -29 -85 -7 -30 -26 -104 -43 -165 -17 -60 -36 -138
-43 -173 -12 -62 -12 -63 -40 -57 -21 5 -31 2 -35 -9 -7 -19 -34 -21 -58 -3
-17 12 -17 15 -1 53 51 119 118 358 135 484 6 41 28 129 49 195 21 66 49 156
61 200 12 44 27 91 32 104 9 24 27 102 68 301 11 52 22 104 25 116 3 13 21 28
47 39 68 30 96 53 103 86 6 26 19 36 98 75 51 25 169 74 262 109 94 35 192 73
218 84 27 12 51 21 53 21 2 0 23 -38 45 -85 23 -47 45 -88 50 -91 29 -18 1
-46 -129 -132 -76 -50 -187 -128 -246 -172 l-107 -80 -21 47 c-66 155 -125
262 -144 263 -5 0 -19 -7 -30 -15 -19 -14 -18 -14 6 -32 35 -24 80 -73 80 -87
0 -6 -30 -24 -66 -41 -36 -16 -60 -31 -54 -33 5 -2 31 8 56 22 26 14 54 26 63
25 25 -1 -120 -69 -158 -74 -36 -5 -81 -30 -81 -44 0 -5 -12 -13 -27 -18 -15
-5 -22 -12 -17 -16 6 -3 34 5 63 18 44 21 53 22 58 10 8 -23 -5 -94 -33 -171
-14 -38 -60 -172 -103 -299 -43 -126 -82 -239 -86 -250 -6 -15 -5 -17 3 -10 7
6 54 134 106 285 51 151 101 289 110 305 9 17 16 39 16 50 1 11 7 43 14 70
l14 50 4 -45 5 -45 1 50 2 51 61 32 c33 18 64 30 69 27 4 -3 24 -39 44 -81
l37 -76 27 18 c15 9 52 36 82 59 82 62 187 135 260 181 122 76 165 106 145
100 -20 -6 -20 -6 -1 9 11 8 23 15 27 15 20 0 58 -22 94 -55 84 -76 123 -104
227 -164 59 -33 110 -61 114 -61 19 0 174 -123 225 -179 63 -68 162 -212 186
-269 11 -27 12 -37 2 -42 -8 -6 -5 -11 10 -19 27 -15 28 -34 1 -26 -12 4 -31
0 -45 -9 -32 -21 -41 -3 -13 25 l23 21 -23 -11 c-17 -9 -23 -9 -26 1 -2 7 -12
43 -21 81 -10 38 -23 67 -30 67 -9 0 -6 -26 12 -104 l24 -104 -301 -302 c-166
-166 -304 -299 -308 -296 -3 4 34 47 83 96 49 50 85 90 79 90 -6 0 -26 -17
-46 -37 -19 -21 -51 -54 -72 -73 l-38 -35 7 34 c4 19 30 111 57 205 27 94 55
194 63 221 7 28 20 77 29 110 18 65 20 104 5 65 -6 -13 -13 -27 -18 -30 -4 -3
-12 -32 -19 -65 -6 -33 -20 -89 -30 -125 -50 -173 -116 -410 -124 -450 -6 -29
-22 -58 -44 -80 -19 -20 -34 -41 -34 -47 0 -9 -38 -114 -75 -205 -4 -11 -3
-18 4 -18 7 0 14 8 18 18 15 45 86 203 93 207 11 7 -7 -68 -30 -133 -17 -44
-29 -123 -13 -84 2 6 8 10 13 7 5 -3 11 14 15 37 4 24 17 84 31 133 l23 90
318 315 317 315 9 -45 c16 -78 12 -279 -6 -340 -17 -56 -146 -325 -211 -438
-20 -35 -36 -69 -36 -74 0 -32 41 39 156 269 l129 257 3 105 c2 58 0 145 -5
194 -10 99 0 121 53 115 25 -3 30 -10 46 -63 19 -65 60 -281 77 -410 16 -116
43 -351 48 -417 l5 -58 64 0 64 0 0 2000 0 2000 -2000 0 -2000 0 0 -2000z
m2440 1861 c22 -18 44 -30 49 -26 10 6 26 -13 26 -30 0 -5 7 -10 15 -10 8 0
15 -4 15 -10 0 -5 10 -24 22 -40 15 -22 30 -31 55 -33 22 -1 41 -11 58 -31 14
-16 40 -46 58 -67 18 -22 30 -33 27 -26 -32 64 108 -133 167 -236 63 -109 91
-258 69 -360 -13 -62 -71 -192 -86 -192 -5 0 -24 -15 -40 -33 -75 -81 -85
-103 -20 -46 19 17 35 29 35 26 0 -10 -64 -67 -75 -67 -5 0 -24 -15 -43 -32
-33 -32 -34 -32 -27 -8 4 14 18 39 31 55 60 79 134 290 134 382 0 68 -17 58
-23 -15 -9 -91 -61 -233 -114 -310 l-25 -37 8 35 c24 96 -3 287 -65 460 -28
78 -25 48 4 -55 14 -48 23 -90 21 -93 -6 -6 -11 6 -26 68 -6 25 -29 89 -51
143 -21 53 -39 102 -39 107 0 17 -80 183 -85 178 -3 -3 4 -27 16 -54 38 -89
68 -179 85 -254 20 -95 23 -255 5 -342 -11 -58 -17 -70 -42 -82 -28 -14 -29
-13 -74 36 -47 53 -87 127 -100 188 -4 19 -11 42 -16 50 -15 26 -11 -26 7 -88
20 -69 45 -114 93 -166 25 -27 30 -35 14 -27 -29 15 -85 85 -114 144 -13 27
-25 44 -27 38 -2 -5 2 -19 8 -30 12 -24 4 -46 -37 -96 -24 -29 -102 -94 -114
-95 -3 0 11 35 32 78 23 46 43 107 51 152 20 116 16 314 -8 361 -21 42 -71 90
-87 83 -11 -4 -17 3 -21 23 -4 16 -17 41 -29 57 -32 40 -76 30 -118 -27 -157
-214 -171 -247 -177 -392 -3 -105 11 -174 68 -315 46 -115 37 -118 -33 -12
-50 76 -84 163 -93 239 -10 79 -24 53 -24 -42 0 -120 27 -184 95 -226 39 -24
12 -24 -40 0 -76 35 -135 126 -135 206 0 72 -35 26 -47 -61 -5 -40 -3 -46 30
-79 19 -19 44 -35 55 -35 11 0 25 -7 32 -15 11 -13 8 -15 -16 -15 -16 0 -46 9
-67 20 -36 19 -37 19 -37 1 0 -20 24 -35 52 -32 9 1 22 -8 29 -21 l12 -23 -22
20 c-18 15 -24 17 -31 6 -16 -27 -109 86 -134 163 -5 13 -10 16 -17 9 -12 -12
25 -135 46 -153 17 -14 20 -30 5 -30 -41 0 -133 98 -142 151 l-4 24 -12 -28
c-20 -46 -15 -100 13 -141 14 -20 25 -39 25 -41 0 -8 -55 16 -72 32 -10 9 -18
12 -18 8 0 -4 -9 0 -20 10 -30 27 -27 -5 4 -38 13 -14 22 -28 20 -30 -9 -9 36
-38 65 -42 29 -3 31 -2 25 21 -5 21 -3 24 20 24 14 0 26 5 26 10 0 24 22 7 38
-28 10 -21 23 -37 30 -34 6 2 12 -1 12 -7 0 -7 8 -7 27 0 14 5 34 7 42 4 13
-4 12 -2 -1 9 -25 19 -24 50 2 43 27 -7 36 10 9 18 -15 5 -18 9 -9 15 6 4 32
1 57 -6 l45 -14 -4 25 c-5 23 -2 25 31 27 72 3 131 -15 160 -48 19 -23 26 -26
42 -16 25 16 26 16 33 -13 7 -29 38 -48 84 -51 24 -2 32 1 34 14 0 9 2 22 3
27 2 6 3 16 4 22 1 12 18 11 89 -3 12 -2 22 0 22 5 0 18 -67 32 -174 37 -60 2
-112 7 -115 10 -11 10 25 24 69 25 30 1 36 3 18 6 -16 2 -28 8 -28 13 0 4 -17
6 -39 3 -35 -5 -39 -3 -43 22 l-6 28 103 -6 c115 -5 138 -13 110 -34 -11 -7
-29 -13 -43 -13 -14 0 -21 -4 -16 -11 8 -14 88 -3 127 18 19 9 40 12 60 7 29
-6 30 -5 18 10 -12 14 -11 19 5 31 10 8 25 15 33 15 18 0 -10 -45 -53 -83
l-31 -28 37 3 c32 3 35 2 27 -14 -5 -9 -17 -21 -25 -26 -30 -17 4 -24 36 -8
27 13 44 6 20 -9 -20 -12 3 -27 32 -21 30 6 30 6 14 -19 -9 -13 -16 -27 -16
-30 0 -13 31 -3 58 20 20 16 36 23 48 18 14 -5 16 -3 11 11 -4 9 1 36 10 59
23 60 31 69 54 56 12 -6 26 -6 37 -1 10 6 27 6 41 1 19 -8 21 -12 11 -24 -16
-19 -54 -19 -73 0 -13 12 -18 8 -37 -38 -18 -41 -20 -57 -13 -78 6 -16 7 -33
1 -43 -7 -12 -5 -16 6 -16 8 0 18 5 21 10 4 6 24 18 46 27 32 12 39 20 39 42
0 15 6 33 13 41 10 12 9 12 -5 1 -10 -7 -18 -24 -18 -37 0 -30 -33 -41 -65
-20 -14 9 -25 23 -25 32 0 24 29 28 52 8 21 -19 21 -19 7 4 -8 12 -22 22 -32
22 -11 0 -17 5 -14 13 2 7 19 11 44 9 27 -2 46 2 57 13 9 9 21 13 27 10 6 -4
3 7 -6 24 -19 38 -36 46 -65 31 -12 -6 -25 -9 -28 -5 -11 11 30 35 60 35 22 0
31 -8 47 -37 46 -93 39 -151 -29 -220 -68 -68 -121 -105 -139 -97 -9 3 -25 8
-36 11 -19 4 -18 3 3 -15 12 -11 22 -23 22 -27 0 -4 -16 -34 -35 -67 -20 -33
-34 -62 -32 -64 1 -2 13 -1 26 3 14 3 18 8 11 13 -7 4 -4 14 10 31 19 21 21
21 15 4 -10 -29 -6 -237 6 -319 5 -38 6 -73 2 -76 -5 -4 -37 -17 -73 -30 -99
-35 -135 -50 -272 -117 -122 -59 -128 -64 -128 -92 0 -24 -7 -34 -31 -47 -17
-8 -29 -12 -26 -7 3 4 1 33 -3 63 -24 160 -25 147 13 159 36 12 124 99 239
236 71 85 162 215 150 215 -4 0 -29 -28 -57 -62 -90 -111 -212 -223 -275 -251
-8 -4 -22 -11 -30 -17 -40 -25 -113 -50 -149 -50 -40 0 -42 1 -161 151 -66 82
-127 164 -136 181 -9 17 -31 86 -49 152 -44 160 -45 161 -79 163 -16 1 -46 16
-67 33 -21 16 -45 30 -54 30 -80 0 -154 124 -156 264 l-1 61 -13 -40 c-17 -49
-18 -110 -5 -136 6 -10 8 -19 6 -19 -3 0 -12 13 -21 30 -20 38 -19 119 1 170
10 24 14 51 10 67 -4 17 -3 23 2 15 7 -11 11 -11 19 0 20 27 63 107 63 119 0
18 54 125 101 198 22 35 38 65 35 68 -10 10 -113 -103 -145 -160 -23 -41 -35
-75 -38 -118 -7 -71 -23 -89 -24 -27 l-1 43 -13 -55 c-7 -30 -13 -44 -14 -30
-2 56 31 157 76 230 56 90 120 175 159 211 119 108 510 309 601 309 13 0 22 4
19 8 -3 5 7 7 22 5 15 -2 54 1 87 6 33 5 113 8 178 7 115 -3 118 -4 157 -35z
m-745 -84 c-11 -8 -60 -37 -110 -66 -49 -28 -101 -59 -115 -69 -13 -9 -21 -11
-16 -4 10 16 68 54 166 109 72 40 116 57 75 30z m1065 -166 c0 -17 -4 -13 -43
41 -15 20 -27 40 -27 45 0 14 69 -71 70 -86z m-618 -88 c10 -9 18 -24 18 -34
0 -18 -2 -18 -37 -2 -21 10 -40 19 -42 20 -4 3 30 32 38 33 3 0 13 -7 23 -17z
m-11 -54 c23 -13 21 -14 -30 -17 -59 -3 -69 1 -52 21 13 17 49 15 82 -4z m-71
-33 c0 -2 -7 -6 -15 -10 -8 -3 -15 -1 -15 4 0 6 7 10 15 10 8 0 15 -2 15 -4z
m180 -26 c10 -18 8 -20 -25 -20 -37 0 -43 8 -23 28 18 18 36 15 48 -8z m-112
-6 c13 -4 22 -14 22 -26 0 -10 4 -17 8 -14 18 11 82 -16 106 -45 25 -29 26
-37 26 -148 0 -119 -23 -249 -56 -313 -17 -32 -11 -31 -91 -14 -92 20 -116 42
-175 165 -44 94 -45 109 -8 243 39 142 76 176 168 152z m123 -41 c13 -15 12
-15 -8 -4 -24 12 -29 21 -14 21 5 0 15 -7 22 -17z m-311 -69 c-45 -145 -44
-143 -32 -200 14 -69 46 -133 92 -187 l35 -42 -32 23 c-42 29 -82 78 -89 108
-11 45 -21 15 -12 -37 11 -61 4 -76 -11 -22 -19 66 -25 187 -12 255 11 56 68
184 78 174 2 -2 -6 -34 -17 -72z m734 -146 c4 -13 9 -75 12 -138 7 -125 -2
-170 -34 -170 -18 0 -18 3 -5 68 9 40 13 107 11 165 -3 94 3 121 16 75z m80
-268 c9 -93 -9 -54 -23 49 -6 46 -11 94 -10 105 1 34 27 -83 33 -154z m-922
-12 c22 -50 17 -78 -8 -43 -19 26 -34 82 -33 125 l1 35 9 -35 c5 -19 19 -56
31 -82z m143 -6 c-28 -6 -45 7 -45 35 l0 27 31 -30 c24 -23 27 -30 14 -32z
m439 14 c18 -35 18 -36 -3 -90 -13 -29 -34 -64 -49 -77 -14 -13 -22 -17 -16
-9 6 8 14 25 17 37 4 20 3 21 -14 13 -16 -9 -15 -5 6 26 19 28 25 50 25 91 0
60 6 62 34 9z m316 -26 c0 -51 -13 -82 -23 -55 -4 9 -3 13 3 10 6 -3 10 -2 10
4 0 5 -7 14 -16 19 -13 7 -14 14 -2 50 15 49 28 37 28 -28z m-1003 -36 c-8 -8
-36 33 -42 61 -6 26 -4 25 19 -14 15 -24 25 -45 23 -47z m792 -31 c10 -7 -53
-133 -77 -154 -20 -18 -23 -19 -11 -4 17 22 45 87 54 125 5 23 4 23 -7 6 -31
-44 -51 -67 -67 -76 -16 -8 -16 -1 7 75 l25 84 36 -27 c20 -14 38 -27 40 -29z
m-1060 7 c11 -24 11 -24 -3 -6 -9 11 -16 24 -16 30 0 12 5 7 19 -24z m421 -10
c0 -5 -2 -10 -4 -10 -3 0 -8 5 -11 10 -3 6 -1 10 4 10 6 0 11 -4 11 -10z
m1035 -9 c-3 -6 -11 -11 -17 -11 -6 0 -6 6 2 15 14 17 26 13 15 -4z m-1284
-28 c13 -16 12 -17 -3 -4 -10 7 -18 15 -18 17 0 8 8 3 21 -13z m-145 -8 c19
-14 19 -14 -2 -15 -12 0 -24 7 -28 15 -7 19 5 19 30 0z m1276 -47 c-7 -7 -12
-8 -12 -2 0 6 3 14 7 17 3 4 9 5 12 2 2 -3 -1 -11 -7 -17z m-1152 -28 c0 -5
-4 -10 -10 -10 -5 0 -10 5 -10 10 0 6 5 10 10 10 6 0 10 -4 10 -10z m485 0 c3
-5 1 -10 -4 -10 -6 0 -11 5 -11 10 0 6 2 10 4 10 3 0 8 -4 11 -10z m-793 -307
c21 -19 24 -71 8 -153 -19 -102 -163 -356 -223 -394 -50 -32 -63 -29 -81 14
-36 89 -7 262 62 378 55 91 109 152 135 152 12 0 29 5 37 10 22 14 41 12 62
-7z m-835 -53 c7 -14 21 -43 30 -65 9 -22 19 -44 21 -48 2 -5 -6 -7 -19 -5
-26 4 -87 82 -88 114 -2 42 35 45 56 4z m145 -67 c1 -28 0 -49 -3 -47 -4 2 -9
-6 -12 -18 -5 -18 -8 -19 -21 -8 -22 17 -21 98 1 122 22 25 30 13 35 -49z m25
-216 c24 -48 43 -94 43 -101 0 -8 18 -49 39 -92 22 -43 38 -80 37 -82 -4 -3
-66 104 -66 113 0 4 -9 25 -19 48 -10 23 -31 71 -46 107 -25 60 -66 126 -88
141 -5 4 -6 12 -2 19 10 16 48 -42 102 -153z m17 118 c-4 -8 -8 -15 -10 -15
-2 0 -4 7 -4 15 0 8 4 15 10 15 5 0 7 -7 4 -15z m43 -37 c-7 -57 -18 -74 -41
-65 -22 9 -20 45 4 85 30 49 44 41 37 -20z m-136 -10 c15 -23 10 -28 -35 -28
-45 0 -74 19 -61 41 10 15 85 5 96 -13z m-48 -45 c-7 -2 -19 -2 -25 0 -7 3 -2
5 12 5 14 0 19 -2 13 -5z m2177 -27 c0 -2 -11 -6 -25 -8 -14 -3 -25 -1 -25 3
0 5 11 9 25 9 14 0 25 -2 25 -4z m-86 -18 c-3 -4 -11 -5 -19 -1 -21 7 -19 12
4 10 11 0 18 -5 15 -9z m-1819 -38 c4 -18 -2 -37 -22 -67 -31 -49 -38 -52 -47
-20 -12 45 -6 78 20 104 27 27 39 23 49 -17z m-195 4 c39 -16 69 -49 55 -62
-3 -3 -25 0 -48 8 -30 11 -42 20 -42 35 0 11 -7 23 -15 27 -32 14 11 7 50 -8z
m270 -88 c26 -57 25 -78 -9 -151 l-28 -60 -16 32 c-10 18 -17 52 -17 76 0 50
26 147 40 147 5 0 19 -20 30 -44z m782 -22 c1 -16 -3 -40 -7 -53 -19 -62 -131
-213 -182 -246 -29 -20 -70 -10 -79 18 -3 12 -15 32 -26 44 -20 21 -18 63 3
63 5 0 9 6 9 13 0 14 28 41 70 68 14 9 44 36 67 60 42 42 120 82 136 69 5 -4
9 -20 9 -36z m-979 5 c17 -21 24 -79 10 -79 -11 0 -103 93 -103 103 0 17 75
-2 93 -24z m511 -84 c-7 -54 -7 -54 -24 -32 -30 40 -32 58 -8 93 21 31 23 32
30 13 5 -11 5 -45 2 -74z m-790 10 c15 -8 40 -15 55 -16 24 0 22 -2 -16 -21
-41 -21 -41 -21 -102 -2 -33 10 -61 22 -61 25 0 10 43 28 70 28 14 1 38 -6 54
-14z m1541 -40 c48 -58 48 -99 0 -116 -30 -11 -35 -18 -41 -58 -4 -25 -14 -52
-23 -59 -9 -8 -10 -11 -3 -7 24 12 11 -10 -30 -52 -28 -28 -37 -43 -26 -43 10
0 20 -15 27 -42 10 -37 9 -56 -13 -143 -14 -55 -32 -120 -40 -145 l-15 -45 0
43 c-1 23 -12 69 -26 102 -32 75 -31 82 5 147 17 29 30 65 30 81 0 19 8 33 28
46 24 16 15 16 -24 0 -11 -5 -15 2 -65 114 -22 49 -37 72 -47 70 -9 -2 -17 -9
-20 -17 -3 -8 0 -11 5 -8 6 4 17 -1 25 -11 22 -24 70 -151 63 -162 -4 -6 -34
-29 -68 -52 -34 -23 -63 -45 -65 -50 -6 -14 -32 -9 -32 6 0 8 6 45 14 83 8 37
17 98 21 135 7 61 11 70 41 94 18 15 31 32 27 37 -3 6 -2 7 3 4 13 -8 39 9 39
25 1 7 6 12 12 11 7 -2 35 12 63 31 63 41 89 38 135 -19z m-628 11 c-12 -34
-45 -66 -80 -79 -16 -6 -17 -2 -11 31 9 48 11 52 48 68 51 22 57 19 43 -20z
m-613 5 c28 -9 52 -23 54 -31 3 -9 0 -11 -14 -5 -72 30 -107 37 -174 37 -51
-1 -69 2 -55 8 33 14 137 10 189 -9z m338 -28 c-42 -103 -72 -327 -73 -544 0
-88 -4 -141 -11 -145 -16 -10 -3 339 17 457 16 94 52 246 62 262 11 19 15 -4
5 -30z m-445 0 c-3 -10 -8 -29 -11 -43 -5 -24 -51 -60 -75 -60 -23 0 -10 50
23 84 36 39 71 49 63 19z m623 8 c0 -6 -4 -13 -10 -16 -5 -3 -10 1 -10 9 0 9
5 16 10 16 6 0 10 -4 10 -9z m-446 -41 c4 -5 5 -13 1 -20 -5 -8 -14 -5 -31 11
-28 26 -35 22 -43 -28 -6 -31 -11 -37 -26 -35 -40 7 -41 22 -2 58 30 28 42 33
65 28 15 -4 31 -10 36 -14z m229 0 c-3 -11 -7 -20 -9 -20 -2 0 -4 9 -4 20 0
11 4 20 9 20 5 0 7 -9 4 -20z m-27 -22 c-4 -20 -21 -46 -43 -65 -58 -52 -83
-39 -43 22 35 54 55 74 74 75 16 0 18 -5 12 -32z m221 -5 c-3 -10 -5 -4 -5 12
0 17 2 24 5 18 2 -7 2 -21 0 -30z m-48 -1 l33 -27 -21 -19 c-21 -19 -22 -19
-41 0 -10 10 -22 31 -25 47 -9 36 10 36 54 -1z m-378 -25 c34 -32 57 -72 46
-83 -8 -8 -77 37 -87 56 -12 22 -13 60 -2 60 4 0 23 -15 43 -33z m546 -25 c44
-31 61 -54 68 -93 6 -31 3 -38 -19 -52 -36 -24 -43 -22 -56 18 -12 36 -35 55
-67 55 -11 0 -5 -7 17 -18 61 -33 80 -137 34 -191 -23 -27 -32 -31 -77 -31
-36 0 -60 6 -83 22 -34 23 -64 75 -64 109 0 47 54 108 97 110 11 0 13 3 6 6
-28 11 1 73 34 73 8 0 12 4 9 9 -11 17 73 3 101 -17z m-352 -79 c-10 -35 -19
-62 -22 -59 -2 2 -8 26 -11 53 -7 43 -5 50 18 70 33 28 36 15 15 -64z m-197
21 c29 -33 28 -40 -10 -48 -18 -3 -45 -18 -60 -33 l-28 -27 -28 27 c-15 15
-36 27 -45 27 -20 0 -20 -1 -6 39 14 41 40 52 104 46 37 -4 56 -12 73 -31z
m372 11 c0 -8 -7 -15 -15 -15 -8 0 -15 7 -15 15 0 8 7 15 15 15 8 0 15 -7 15
-15z m-806 -17 c9 -13 16 -43 16 -70 0 -39 -6 -54 -32 -83 -33 -39 -29 -54 17
-55 20 -1 78 -29 60 -30 -5 0 -32 7 -60 16 -36 11 -69 14 -117 9 -56 -5 -73
-3 -107 14 -54 28 -57 37 -20 56 37 19 71 14 114 -19 33 -26 75 -42 75 -29 0
4 -9 35 -19 68 -20 65 -15 94 24 127 26 23 31 22 49 -4z m529 -23 c-4 -15 -36
-12 -41 3 -3 9 3 13 19 10 13 -1 23 -7 22 -13z m56 -39 c33 -58 42 -92 17 -66
-32 33 -69 120 -52 120 3 0 18 -24 35 -54z m-359 34 c0 -5 -7 -10 -15 -10 -8
0 -15 5 -15 10 0 6 7 10 15 10 8 0 15 -4 15 -10z m860 6 c0 -3 -4 -8 -10 -11
-5 -3 -10 -1 -10 4 0 6 5 11 10 11 6 0 10 -2 10 -4z m-558 -43 c10 -9 29 -35
43 -59 41 -70 29 -139 -29 -169 -36 -19 -33 -20 -41 15 -8 38 -92 120 -123
120 -56 0 -30 64 40 99 46 23 80 21 110 -6z m645 -80 c4 -30 1 -44 -13 -57
-17 -18 -18 -18 -25 0 -4 11 -27 40 -53 65 -42 43 -44 47 -28 62 30 26 55 25
85 -3 19 -18 30 -41 34 -67z m-897 70 c24 -14 50 -50 50 -69 0 -3 -19 -13 -43
-23 -48 -21 -58 -31 -77 -81 -18 -49 -23 -53 -52 -39 -31 14 -48 48 -54 109
-4 37 0 50 19 73 37 44 111 58 157 30z m389 -77 c-9 -8 -10 -3 -5 23 3 18 7
41 8 50 1 9 3 -1 5 -23 3 -22 -1 -43 -8 -50z m53 34 c-1 -19 6 -47 18 -68 16
-26 18 -38 10 -46 -8 -8 -10 -7 -5 4 4 11 -4 19 -25 27 -32 12 -36 29 -24 92
9 41 30 34 26 -9z m334 -22 c66 -50 77 -65 70 -97 -3 -17 -9 -45 -12 -62 -9
-41 -38 -53 -109 -44 -49 6 -59 11 -76 38 -23 38 -24 47 -4 47 8 0 30 16 50
37 26 27 35 45 35 70 0 39 6 40 46 11z m494 12 c0 -5 -4 -10 -10 -10 -5 0 -10
5 -10 10 0 6 5 10 10 10 6 0 10 -4 10 -10z m-1117 -78 c68 -64 76 -130 22
-185 -43 -44 -63 -51 -129 -42 -74 9 -120 55 -118 116 1 47 39 115 69 127 70
27 115 22 156 -16z m970 23 c-3 -9 -8 -14 -10 -11 -3 3 -2 9 2 15 9 16 15 13
8 -4z m-718 -85 c7 -31 6 -33 -9 -21 -10 9 -16 28 -15 55 0 45 10 32 24 -34z
m694 38 c15 -9 16 -16 7 -39 -8 -23 -6 -42 13 -96 12 -38 25 -105 28 -153 5
-73 2 -95 -20 -160 -42 -126 -59 -192 -68 -260 -4 -36 -23 -112 -42 -170 -19
-58 -47 -145 -63 -195 -15 -50 -29 -92 -30 -93 -6 -9 -67 46 -80 70 -8 15 -17
54 -20 87 -6 54 -5 59 15 66 29 9 26 32 -6 48 -26 14 -27 14 -27 138 -1 165
-20 171 -24 8 -2 -104 -5 -120 -18 -115 -9 3 -27 6 -40 6 -34 0 -29 22 9 40
38 18 48 55 19 75 -23 17 -19 67 9 105 16 21 19 45 20 140 0 63 -3 123 -6 133
-6 15 0 17 52 17 62 0 81 11 96 53 9 24 -69 61 -109 51 -19 -5 -25 -4 -20 5
15 24 84 48 151 54 39 3 77 8 87 12 20 8 32 68 18 95 -27 50 -200 -6 -200 -65
0 -7 -7 -15 -15 -19 -8 -3 -15 -3 -15 0 0 10 45 70 85 112 33 36 44 42 67 37
17 -4 36 -1 50 9 27 19 51 20 77 4z m-1284 -75 c-20 -66 -43 -85 -109 -91 -59
-5 -61 -3 -56 43 2 31 55 72 110 86 30 8 46 17 43 23 -4 6 0 5 9 -2 15 -12 15
-18 3 -59z m664 29 c-13 -16 -29 -38 -36 -48 -9 -15 -12 -16 -12 -4 -1 17 59
94 66 86 3 -3 -5 -18 -18 -34z m404 13 c-8 -22 -22 -18 -16 5 3 11 9 17 14 15
4 -3 6 -12 2 -20z m-323 -5 c13 -9 13 -11 0 -20 -22 -15 -30 -12 -30 10 0 22
8 25 30 10z m54 -16 c4 -10 1 -14 -6 -12 -15 5 -23 28 -10 28 5 0 13 -7 16
-16z m-754 -24 c0 -19 -11 -26 -23 -14 -8 8 3 34 14 34 5 0 9 -9 9 -20z m562
-48 c14 -26 28 -58 30 -71 5 -37 -19 -36 -27 1 -4 18 -18 52 -31 75 -27 47
-29 54 -11 48 6 -3 24 -27 39 -53z m187 38 c20 0 31 -7 40 -26 10 -23 9 -31
-13 -63 -23 -33 -29 -36 -66 -33 -38 4 -40 6 -40 37 0 19 5 46 11 62 11 30 32
48 37 33 2 -6 16 -10 31 -10z m431 -20 c0 -42 -34 -61 -115 -65 -72 -3 -108
-21 -178 -90 -21 -20 -41 -35 -44 -32 -11 12 53 76 103 103 30 16 54 34 54 39
2 38 69 72 148 74 29 1 32 -2 32 -29z m-1145 10 c3 -5 1 -10 -4 -10 -6 0 -11
5 -11 10 0 6 2 10 4 10 3 0 8 -4 11 -10z m426 -39 c12 -68 2 -93 -19 -47 -6
15 -23 27 -41 31 -36 8 -51 25 -23 25 11 0 23 7 26 15 5 14 8 14 31 -1 14 -9
26 -19 26 -23z m-461 14 c40 -21 38 -31 -8 -42 -54 -14 -64 -8 -44 28 20 34
16 33 52 14z m827 -27 c-3 -8 -6 -5 -6 6 -1 11 2 17 5 13 3 -3 4 -12 1 -19z
m102 6 c10 -9 -21 -54 -37 -54 -17 0 -42 36 -42 61 0 9 68 3 79 -7z m-1163 -9
c3 -8 25 -20 47 -26 39 -10 40 -12 22 -25 -11 -8 -26 -12 -33 -9 -8 3 -24 5
-37 5 -29 0 -55 24 -55 51 0 23 48 27 56 4z m882 -56 c-18 -12 -22 11 -6 47
l12 29 4 -34 c2 -21 -2 -37 -10 -42z m-229 26 c19 -19 7 -42 -34 -66 -36 -21
-43 -33 -25 -44 6 -3 10 -11 10 -17 0 -6 -12 1 -26 16 -33 33 -58 33 -72 1
-21 -46 -125 -95 -172 -80 -67 21 49 115 142 115 45 0 64 13 36 23 -7 2 -10 8
-5 12 4 5 17 -1 30 -13 32 -30 37 -28 37 16 0 21 5 43 12 50 13 13 46 7 67
-13z m115 -20 c-5 -21 -9 -24 -15 -13 -11 19 1 62 13 50 5 -5 6 -22 2 -37z
m-443 15 l24 -20 -37 -35 c-31 -29 -45 -35 -81 -35 -95 0 -87 71 12 100 42 13
57 11 82 -10z m745 7 c8 3 14 0 14 -7 0 -6 -4 -8 -10 -5 -6 4 -10 -6 -10 -22
l-1 -28 -14 34 c-18 40 -19 49 -4 34 6 -6 18 -9 25 -6z m-521 -17 c-3 -5 -12
-10 -18 -10 -7 0 -6 4 3 10 19 12 23 12 15 0z m-392 -7 c-7 -2 -21 -2 -30 0
-10 3 -4 5 12 5 17 0 24 -2 18 -5z m-85 -21 c-20 -10 -53 -34 -72 -54 -67 -69
-162 -72 -137 -6 12 32 40 42 94 34 34 -4 50 -1 82 19 22 14 47 25 55 25 8 -1
-2 -9 -22 -18z m69 -74 c-10 -10 -26 -18 -34 -18 -20 0 -10 55 14 82 16 18 17
17 28 -14 10 -29 9 -35 -8 -50z m313 72 c0 -5 -7 -10 -15 -10 -8 0 -15 5 -15
10 0 6 7 10 15 10 8 0 15 -4 15 -10z m522 -17 c42 -15 49 -22 73 -74 25 -56
25 -60 10 -90 -15 -29 -18 -30 -34 -15 -10 9 -29 16 -43 16 -46 0 -93 23 -130
63 -45 48 -47 68 -12 96 32 25 74 27 136 4z m-656 -66 c-14 -19 -26 -41 -26
-50 0 -13 -10 -17 -44 -17 -54 0 -64 18 -31 54 19 20 34 26 66 26 23 0 39 3
36 7 -4 3 -1 13 5 21 25 29 19 -8 -6 -41z m937 41 c34 -16 34 -21 0 -48 -23
-18 -36 -21 -77 -16 -28 3 -56 12 -64 20 -13 13 -11 17 19 35 39 24 83 27 122
9z m-508 -42 c11 -7 32 -16 47 -19 34 -9 58 -33 58 -58 0 -15 -8 -19 -37 -20
l-38 -1 38 -8 c21 -4 43 -12 50 -19 16 -16 37 -14 37 4 0 8 5 15 10 15 14 0
12 -28 -2 -33 -9 -3 -6 -12 10 -29 28 -31 33 -86 9 -100 -11 -5 -17 -22 -17
-42 0 -39 -15 -55 -59 -60 -27 -3 -31 0 -31 19 0 40 -39 117 -77 153 -40 37
-38 56 8 79 23 12 22 13 -15 13 -28 0 -45 7 -62 25 -13 14 -34 25 -49 25 -29
0 -35 27 -7 37 9 4 28 15 41 25 25 19 48 17 86 -6z m375 -51 c27 -43 28 -125
1 -149 -18 -16 -20 -15 -41 19 -16 26 -20 43 -15 63 4 15 8 46 8 69 0 49 16
49 47 -2z m-540 31 c0 -2 -3 -11 -6 -20 -9 -23 -24 -20 -24 4 0 11 7 20 15 20
8 0 15 -2 15 -4z m-120 -52 c0 -8 -4 -12 -10 -9 -5 3 -10 10 -10 16 0 5 5 9
10 9 6 0 10 -7 10 -16z m194 -27 c58 -54 45 -86 -36 -87 -36 0 -95 -52 -103
-91 -14 -62 -65 -48 -78 22 -13 63 -10 90 13 114 11 12 20 26 20 33 0 22 45
42 96 42 44 0 56 -5 88 -33z m-291 -18 c19 -45 20 -129 0 -129 -16 0 -53 63
-60 103 -3 24 0 38 12 50 24 24 28 22 48 -24z m-320 16 c18 -9 43 -22 56 -29
l24 -14 -39 -11 c-102 -29 -166 -19 -172 26 -3 18 4 24 30 32 48 13 65 13 101
-4z m847 5 c0 -5 -5 -10 -11 -10 -5 0 -7 5 -4 10 3 6 8 10 11 10 2 0 4 -4 4
-10z m147 -58 c24 -27 33 -48 36 -87 3 -27 8 -61 12 -75 14 -55 -69 -99 -158
-85 l-39 7 20 22 c11 11 27 47 37 79 15 48 16 64 6 96 -14 50 -14 78 2 84 23
10 52 -5 84 -41z m-807 -29 c28 -11 101 -55 97 -59 -2 -3 -24 7 -48 21 -24 13
-65 32 -91 41 -27 8 -48 20 -48 25 0 5 17 2 38 -7 20 -9 44 -18 52 -21z m524
-49 c26 -33 45 -85 46 -125 0 -27 -86 -99 -119 -99 -34 0 -105 31 -128 56 -38
41 -40 86 -6 136 35 53 64 68 128 68 46 0 53 -3 79 -36z m-525 17 c29 -18 2
-48 -64 -70 -58 -19 -115 -27 -115 -17 0 1 5 17 11 33 8 24 19 33 52 42 87 22
98 23 116 12z m899 -58 c-4 -33 -24 -41 -33 -12 -5 14 -2 25 6 30 23 15 30 10
27 -18z m-723 -21 c-3 -3 -11 0 -18 7 -9 10 -8 11 6 5 10 -3 15 -9 12 -12z
m33 -68 c2 -11 -3 -26 -11 -32 -17 -14 -125 -37 -133 -29 -3 3 -3 20 1 37 8
38 33 50 95 47 37 -2 46 -6 48 -23z m62 1 c0 -18 -5 -25 -20 -25 -15 0 -20 7
-20 25 0 18 5 25 20 25 15 0 20 -7 20 -25z m-217 -20 c-3 -9 -8 -14 -10 -11
-3 3 -2 9 2 15 9 16 15 13 8 -4z m585 -23 c2 -7 -3 -12 -12 -12 -9 0 -16 7
-16 16 0 17 22 14 28 -4z m-48 -16 c0 -20 -16 -29 -41 -21 -19 7 -20 7 -2 21
24 18 43 18 43 0z m246 -2 c15 -12 16 -16 5 -21 -7 -3 -23 -15 -35 -27 -19
-19 -29 -20 -76 -11 -8 2 -17 4 -19 4 -11 2 37 45 64 56 39 17 38 17 61 -1z
m-512 -13 c16 -18 16 -19 -15 -30 -45 -16 -79 -14 -86 5 -15 39 70 60 101 25z
m396 12 c0 -5 -9 -21 -20 -38 -27 -41 -26 -45 18 -38 l37 6 -25 -19 c-14 -11
-38 -25 -53 -32 -23 -10 -29 -9 -34 4 -3 8 -1 26 6 40 6 14 11 35 11 48 0 12
3 26 7 29 9 9 53 9 53 0z m-80 -20 c0 -10 -20 -40 -20 -31 0 3 -3 13 -6 22 -4
11 -1 16 10 16 9 0 16 -3 16 -7z m-48 -25 c9 -7 22 -35 31 -63 8 -27 24 -83
37 -123 12 -40 20 -75 17 -79 -14 -13 -35 8 -41 42 -4 20 -13 51 -21 69 -7 17
-19 46 -26 65 -7 18 -23 48 -35 67 l-23 34 22 0 c13 0 30 -6 39 -12z m288 -3
c0 -19 -32 -36 -50 -25 -11 7 -11 11 -1 24 17 20 51 21 51 1z m-490 -15 c12
-23 3 -25 -35 -8 -18 8 -22 14 -13 20 21 13 37 9 48 -12z m55 -10 c10 -15 25
-12 25 6 0 10 7 14 22 12 29 -4 36 -28 8 -28 -13 0 -20 -5 -18 -12 6 -16 58
-21 58 -5 0 20 20 -16 20 -37 0 -18 -2 -18 -26 5 -25 23 -26 23 -15 2 6 -12
16 -25 21 -28 6 -3 10 -14 10 -23 0 -11 -10 -5 -30 19 -16 20 -42 42 -58 48
-15 7 -36 26 -46 42 -18 31 -18 31 2 20 12 -6 24 -16 27 -21z m-128 4 c-3 -3
-12 -4 -19 -1 -8 3 -5 6 6 6 11 1 17 -2 13 -5z m58 -26 c25 -7 45 -15 45 -19
0 -3 -9 -14 -21 -24 -16 -15 -37 -19 -97 -20 -92 0 -101 14 -32 51 52 28 47
27 105 12z m386 -83 c-7 -29 -11 -56 -10 -61 1 -5 1 -29 0 -54 -2 -37 -4 -41
-11 -23 -9 23 2 161 16 197 14 36 17 -4 5 -59z m47 24 c-21 -14 -26 -10 -20
14 8 31 26 41 30 15 2 -11 -2 -25 -10 -29z m-101 -32 c-6 -37 -14 -67 -18 -67
-7 0 -19 51 -19 81 0 18 37 65 45 57 2 -2 -1 -34 -8 -71z m223 27 c22 -9 40
-20 40 -25 0 -19 -96 -52 -152 -53 -32 -1 -58 0 -58 1 0 2 7 11 15 20 8 10 21
26 28 36 7 10 29 22 47 27 19 4 36 8 37 9 2 1 21 -6 43 -15z m-396 -57 c29
-43 36 -73 8 -36 -17 23 -50 90 -38 79 2 -3 16 -22 30 -43z m60 1 c28 -67 29
-77 7 -71 -18 5 -31 40 -31 84 0 28 9 23 24 -13z m-90 7 c3 -9 0 -15 -9 -15
-8 0 -15 7 -15 15 0 8 4 15 9 15 5 0 11 -7 15 -15z m2893 -27 c-3 -8 -6 -5 -6
6 -1 11 2 17 5 13 3 -3 4 -12 1 -19z m-2467 -32 c0 -19 3 -42 6 -51 6 -14 1
-13 -27 4 -19 11 -57 26 -86 32 -67 15 -69 32 -4 23 37 -5 55 -2 72 10 33 23
39 20 39 -18z m-213 -38 c-2 -13 -4 -3 -4 22 0 25 2 35 4 23 2 -13 2 -33 0
-45z m2690 -35 c-3 -10 -5 -2 -5 17 0 19 2 27 5 18 2 -10 2 -26 0 -35z m-3007
-12 c0 -21 7 -55 15 -75 14 -32 14 -36 0 -36 -9 0 -21 -11 -27 -25 -15 -33
-21 -32 -40 9 -15 31 -15 35 0 50 15 14 18 14 40 -7 l25 -22 -12 22 c-16 32
-30 37 -50 19 -10 -9 -22 -16 -28 -16 -11 0 -33 43 -33 64 0 18 31 43 60 49
49 9 50 8 50 -32z m35 -31 c3 -5 1 -10 -4 -10 -6 0 -11 5 -11 10 0 6 2 10 4
10 3 0 8 -4 11 -10z m2982 -22 c-3 -8 -6 -5 -6 6 -1 11 2 17 5 13 3 -3 4 -12
1 -19z m-3008 -100 c-8 -14 -14 -18 -17 -10 -4 13 17 46 25 38 3 -2 -1 -15 -8
-28z"/>
<path d="M2490 3820 c0 -5 5 -10 11 -10 5 0 7 5 4 10 -3 6 -8 10 -11 10 -2 0
-4 -4 -4 -10z"/>
<path d="M2296 3738 c5 -24 9 -68 9 -99 0 -40 4 -55 12 -52 14 6 36 68 30 86
-2 6 -9 -4 -15 -23 l-10 -35 -1 50 c0 36 2 46 9 35 17 -27 11 0 -10 40 -26 52
-35 51 -24 -2z"/>
<path d="M2468 3673 c12 -2 32 -2 45 0 12 2 2 4 -23 4 -25 0 -35 -2 -22 -4z"/>
<path d="M2391 3639 c-13 -11 -21 -22 -18 -26 4 -3 12 -1 19 4 7 6 28 14 46
18 17 3 32 11 32 16 0 17 -55 9 -79 -12z"/>
<path d="M2256 3606 c5 -22 3 -24 -17 -19 -18 5 -21 3 -16 -11 4 -10 8 -30 8
-44 1 -27 1 -27 9 3 7 26 8 27 9 6 1 -19 4 -21 15 -12 8 7 13 24 11 39 -2 15
-4 35 -4 45 -1 9 -6 17 -11 17 -6 0 -8 -10 -4 -24z"/>
<path d="M1597 3468 c-63 -75 -133 -186 -167 -267 -34 -78 -40 -121 -8 -51 68
149 120 235 187 310 37 40 49 60 37 60 -3 0 -25 -24 -49 -52z"/>
<path d="M2849 3433 c52 -106 103 -294 111 -403 5 -89 7 -93 19 -65 22 50 25
144 7 215 -20 79 -75 193 -117 240 -17 20 -26 26 -20 13z"/>
<path d="M1398 3248 c-58 -89 -89 -190 -86 -281 l1 -52 7 55 c7 50 7 48 5 -20
-3 -71 -1 -78 27 -110 l29 -35 -20 42 c-39 78 -24 208 39 346 16 37 30 69 30
72 0 13 -19 3 -32 -17z m-54 -172 c-3 -15 -8 -25 -11 -23 -2 3 -1 17 3 31 3
15 8 25 11 23 2 -3 1 -17 -3 -31z"/>
<path d="M1213 3054 c-5 -10 -8 -69 -8 -129 0 -98 3 -116 24 -156 25 -47 74
-89 103 -89 15 0 15 3 1 40 -9 22 -21 40 -27 40 -6 0 -20 10 -32 23 -51 56
-77 165 -55 242 11 41 7 61 -6 29z"/>
<path d="M1235 3017 c-4 -10 -5 -49 -3 -87 6 -73 32 -133 61 -138 14 -3 13 5
-8 53 -14 31 -29 86 -33 123 -6 47 -11 62 -17 49z"/>
<path d="M2941 2918 c0 -9 -4 -25 -7 -35 -5 -14 -4 -15 5 -7 7 7 11 22 8 35
-2 13 -5 16 -6 7z"/>
<path d="M2168 2613 c7 -3 16 -2 19 1 4 3 -2 6 -13 5 -11 0 -14 -3 -6 -6z"/>
<path d="M1712 2509 c-23 -52 -42 -100 -42 -107 0 -18 59 -77 68 -68 4 4 -8
21 -27 38 -28 25 -32 33 -23 47 34 47 73 136 70 159 -2 20 -12 6 -46 -69z"/>
<path d="M2640 2580 c-8 -5 -10 -10 -5 -10 6 0 17 5 25 10 8 5 11 10 5 10 -5
0 -17 -5 -25 -10z"/>
<path d="M2555 2540 c-3 -5 -13 -6 -22 -3 -11 4 -14 3 -9 -5 9 -16 18 -15 42
3 10 8 14 15 7 15 -6 0 -14 -4 -18 -10z"/>
<path d="M1741 2210 c19 -11 192 -29 181 -19 -10 10 -118 29 -161 29 -27 -1
-32 -3 -20 -10z"/>
<path d="M1765 1294 c-19 -25 -24 -39 -17 -46 13 -13 61 38 62 65 0 27 -15 20
-45 -19z"/>
<path d="M1536 928 c-17 -56 -75 -505 -76 -575 0 -84 17 -41 23 55 3 53 12
131 21 172 18 86 56 322 56 345 0 18 -19 20 -24 3z"/>
<path d="M1975 1595 c-49 -48 -16 -96 40 -59 20 13 25 24 23 48 -4 40 -30 45
-63 11z m55 -20 c0 -16 -47 -51 -57 -42 -9 10 26 57 42 57 8 0 15 -7 15 -15z"/>
<path d="M2881 1363 c-7 -14 -39 -105 -71 -202 -32 -97 -80 -230 -105 -296
-25 -66 -61 -160 -79 -210 -62 -167 -118 -299 -177 -420 -33 -65 -59 -125 -59
-132 0 -26 16 -12 37 35 12 26 47 99 77 163 30 64 71 154 89 200 19 46 52 125
74 174 49 109 122 316 157 445 46 165 68 235 78 247 5 6 5 14 0 17 -5 3 -14
-6 -21 -21z m-134 -454 c-8 -19 -22 -56 -31 -82 -10 -27 -20 -46 -23 -43 -3 2
10 41 27 86 18 44 34 79 37 77 2 -2 -3 -19 -10 -38z m-71 -183 c-21 -49 -28
-46 -9 4 9 22 18 38 20 36 2 -2 -3 -20 -11 -40z"/>
<path d="M2054 1344 c-9 -24 -38 -98 -64 -164 -11 -27 -16 -50 -11 -50 11 0
95 219 87 227 -3 3 -9 -3 -12 -13z"/>
<path d="M3039 1269 c-11 -11 -30 -43 -43 -72 -42 -92 -169 -481 -205 -627
-36 -146 -53 -309 -31 -295 6 3 10 26 10 50 0 43 17 126 65 315 47 187 48 189
132 405 30 77 60 156 68 175 10 28 18 35 39 35 31 -1 35 20 5 28 -13 3 -28 -2
-40 -14z"/>
<path d="M2592 1063 c-71 -317 -203 -719 -318 -971 -19 -42 -33 -80 -31 -86
10 -26 139 290 225 549 75 225 122 398 146 533 10 56 -9 35 -22 -25z"/>
<path d="M1903 920 c-28 -83 -47 -153 -44 -155 9 -5 106 293 99 301 -3 3 -28
-63 -55 -146z"/>
<path d="M3514 892 c-28 -26 -93 -85 -145 -132 -134 -120 -214 -198 -208 -204
2 -2 36 26 75 62 38 37 114 108 169 157 150 137 168 155 164 159 -2 3 -27 -16
-55 -42z"/>
<path d="M3693 743 c16 -56 32 -150 47 -265 8 -64 7 -82 -7 -110 -33 -65 -116
-179 -246 -334 -26 -31 -27 -34 -9 -34 28 0 178 193 264 340 24 42 25 50 18
125 -4 44 -13 103 -19 130 -6 28 -16 76 -22 108 -6 31 -15 57 -20 57 -6 0 -8
-8 -6 -17z"/>
<path d="M1825 638 c-15 -51 -34 -114 -42 -140 -8 -26 -13 -53 -10 -60 2 -7
12 14 21 47 10 33 29 100 43 148 14 49 23 90 21 93 -3 2 -17 -38 -33 -88z"/>
<path d="M2747 593 c-30 -48 -115 -542 -100 -580 3 -7 11 -13 18 -13 8 0 14
36 18 128 6 123 29 270 64 400 14 55 14 88 0 65z"/>
<path d="M2918 303 c-27 -29 -57 -79 -41 -70 10 6 76 97 70 97 -2 0 -15 -12
-29 -27z"/>
<path d="M2730 116 c0 -64 4 -107 11 -111 6 -4 11 -5 13 -4 6 11 -7 219 -15
219 -5 0 -9 -47 -9 -104z"/>
<path d="M2821 99 c-18 -44 -30 -86 -28 -92 2 -7 9 4 14 23 6 19 20 59 32 89
12 29 20 55 18 57 -2 3 -18 -32 -36 -77z"/>
<path d="M2361 40 c-29 -37 -30 -40 -11 -40 11 0 23 8 26 17 3 10 10 26 15 36
19 35 3 27 -30 -13z"/>
</g>
</svg>
